<?xml version="1.0" encoding="UTF-8"?>
<svg width="1200pt" height="1200pt" version="1.1" viewBox="0 0 1200 1200" xmlns="http://www.w3.org/2000/svg">
 <g>
  <path d="m599.98 328.88c-149.51 0-271.12 121.63-271.12 271.12s121.62 271.12 271.12 271.12c149.51 0 271.12-121.63 271.12-271.12s-121.62-271.12-271.12-271.12zm0 426.14c-85.473 0-155.01-69.539-155.01-155.01s69.539-155.01 155.01-155.01 155.01 69.539 155.01 155.01-69.539 155.01-155.01 155.01z"/>
  <path d="m599.98 951.57h0.003906c32.062 0 58.055 32.062 58.055 58.055v66.27c0 32.062-25.992 58.055-58.055 58.055h-0.003906c-32.062 0-58.055-32.062-58.055-58.055v-66.27c0-32.062 25.992-58.055 58.055-58.055z"/>
  <path d="m599.98 66.055h0.003906c32.062 0 58.055 32.062 58.055 58.055v66.254c0 32.062-25.992 58.055-58.055 58.055h-0.003906c-32.062 0-58.055-32.062-58.055-58.055v-66.254c0-32.062 25.992-58.055 58.055-58.055z"/>
  <path d="m806.65 884.42c25.941-18.844 65.816-8.1758 81.09 12.855l38.941 53.613c18.844 25.941 13.086 62.25-12.855 81.09-25.941 18.844-65.816 8.1758-81.09-12.855l-38.941-53.613c-18.844-25.941-13.086-62.25 12.855-81.09z"/>
  <path d="m286.13 168.03 0.015626-0.011719c25.938-18.848 65.812-8.1914 81.094 12.836l38.957 53.609c18.848 25.938 13.102 62.246-12.836 81.094l-0.015625 0.011718c-25.938 18.848-65.812 8.1914-81.094-12.836l-38.957-53.609c-18.848-25.938-13.102-62.246 12.836-81.094z"/>
  <path d="m934.36 708.66 0.003906-0.019531c9.9062-30.496 48.434-45.309 73.152-37.277l63.035 20.48c30.496 9.9062 47.184 42.66 37.277 73.152l-0.003907 0.019531c-9.9062 30.496-48.434 45.309-73.152 37.277l-63.035-20.48c-30.496-9.9062-47.184-42.66-37.277-73.152z"/>
  <path d="m92.172 435 0.003906-0.019531c9.9062-30.496 48.434-45.309 73.152-37.277l63.035 20.48c30.496 9.9062 47.184 42.66 37.277 73.152l-0.003906 0.019531c-9.9062 30.496-48.434 45.309-73.152 37.277l-63.035-20.48c-30.496-9.9062-47.184-42.66-37.277-73.152z"/>
  <path d="m971.63 418.2 63.035-20.484c30.492-9.9102 65.125 12.551 73.156 37.273l0.003907 0.019531c9.9102 30.492-6.7773 63.246-37.273 73.156l-63.035 20.484c-30.492 9.9102-65.125-12.551-73.156-37.273l-0.003906-0.019532c-9.9102-30.492 6.7773-63.246 37.273-73.156z"/>
  <path d="m129.45 691.84 63.035-20.48c30.496-9.9062 65.121 12.555 73.152 37.277l0.003906 0.019531c9.9062 30.496-6.7812 63.246-37.277 73.152l-63.035 20.48c-30.496 9.9062-65.121-12.555-73.152-37.277l-0.003906-0.019531c-9.9062-30.496 6.7812-63.246 37.277-73.152z"/>
  <path d="m793.8 234.48 38.934-53.605c18.844-25.941 60.059-28.133 81.09-12.855 25.941 18.844 31.699 55.148 12.855 81.09l-38.934 53.605c-18.844 25.941-60.059 28.133-81.09 12.855-25.941-18.844-31.699-55.148-12.855-81.09z"/>
  <path d="m273.29 950.88 38.961-53.621c18.848-25.938 60.066-28.121 81.094-12.84l0.015625 0.011719c25.938 18.848 31.688 55.156 12.84 81.094l-38.961 53.621c-18.848 25.938-60.066 28.121-81.094 12.84l-0.015625-0.011719c-25.938-18.848-31.688-55.156-12.84-81.094z"/>
 </g>
</svg>
